<?xml version="1.0"?>
<svg xmlns="http://www.w3.org/2000/svg" viewBox="0 0 64 64" width="512" height="512"><g id="Broom-2" data-name="Broom"><path d="M30,45H29V42a1,1,0,0,0-1-1H24V3a2,2,0,0,0-2-2H20a2,2,0,0,0-2,2V41H14a1,1,0,0,0-1,1v3H12a1,1,0,0,0-1,1v4a1,1,0,0,0,1,1h.914L12,61.917A1,1,0,0,0,13,63H29a1,1,0,0,0,1-1.083L29.086,51H30a1,1,0,0,0,1-1V46A1,1,0,0,0,30,45ZM20,3h2V41H20ZM15,43H27v2H15Zm-2,4H29v2H13ZM27.913,61H26V55a1,1,0,0,0-2,0v6H22V57a1,1,0,0,0-2,0v4H18V56a1,1,0,0,0-2,0v5H14.087l.833-10H27.08Z"/><path d="M21,55a1,1,0,0,0,1-1V53a1,1,0,0,0-2,0v1A1,1,0,0,0,21,55Z"/><path d="M50.988,48.848A1,1,0,0,0,50,48H46V42a2,2,0,0,0-2-2H42a2,2,0,0,0-2,2v6H36a1,1,0,0,0-.988.848l-2,13A1,1,0,0,0,34,63H52a1,1,0,0,0,.988-1.152ZM42,42h2v6H42ZM39.117,61l.779-7H46.1l.779,7ZM48.9,61l-.9-8.11A1,1,0,0,0,47,52H39a1,1,0,0,0-.994.89L37.1,61H35.166l1.692-11H49.142l1.692,11Z"/></g></svg>
