<svg viewBox="0 1 511 511.99997" xmlns="http://www.w3.org/2000/svg"><g fill="#b75129"><path d="m458.164062 31.105469h-117.027343c-4.328125 0-7.835938-3.507813-7.835938-7.835938s3.507813-7.835937 7.835938-7.835937h117.027343c4.328126 0 7.835938 3.507812 7.835938 7.835937s-3.507812 7.835938-7.835938 7.835938zm0 0"/><path d="m458.164062 55.898438h-117.027343c-4.328125 0-7.835938-3.507813-7.835938-7.835938s3.507813-7.835938 7.835938-7.835938h117.027343c4.328126 0 7.835938 3.507813 7.835938 7.835938s-3.507812 7.835938-7.835938 7.835938zm0 0"/><path d="m458.164062 80.691406h-117.027343c-4.328125 0-7.835938-3.507812-7.835938-7.835937s3.507813-7.835938 7.835938-7.835938h117.027343c4.328126 0 7.835938 3.507813 7.835938 7.835938s-3.507812 7.835937-7.835938 7.835937zm0 0"/><path d="m458.164062 105.484375h-117.027343c-4.328125 0-7.835938-3.507813-7.835938-7.835937 0-4.328126 3.507813-7.835938 7.835938-7.835938h117.027343c4.328126 0 7.835938 3.507812 7.835938 7.835938 0 4.328124-3.507812 7.835937-7.835938 7.835937zm0 0"/><path d="m458.164062 130.277344h-117.027343c-4.328125 0-7.835938-3.507813-7.835938-7.835938s3.507813-7.839844 7.835938-7.839844h117.027343c4.328126 0 7.835938 3.511719 7.835938 7.839844s-3.507812 7.835938-7.835938 7.835938zm0 0"/><path d="m458.164062 155.070312h-117.027343c-4.328125 0-7.835938-3.511718-7.835938-7.839843s3.507813-7.835938 7.835938-7.835938h117.027343c4.328126 0 7.835938 3.507813 7.835938 7.835938s-3.507812 7.839843-7.835938 7.839843zm0 0"/><path d="m458.164062 179.863281h-117.027343c-4.328125 0-7.835938-3.511719-7.835938-7.839843 0-4.324219 3.507813-7.835938 7.835938-7.835938h117.027343c4.328126 0 7.835938 3.511719 7.835938 7.835938 0 4.328124-3.507812 7.839843-7.835938 7.839843zm0 0"/><path d="m458.164062 204.65625h-117.027343c-4.328125 0-7.835938-3.511719-7.835938-7.839844s3.507813-7.835937 7.835938-7.835937h117.027343c4.328126 0 7.835938 3.507812 7.835938 7.835937s-3.507812 7.839844-7.835938 7.839844zm0 0"/><path d="m458.164062 229.445312h-117.027343c-4.328125 0-7.835938-3.507812-7.835938-7.835937s3.507813-7.835937 7.835938-7.835937h117.027343c4.328126 0 7.835938 3.507812 7.835938 7.835937s-3.507812 7.835937-7.835938 7.835937zm0 0"/><path d="m458.164062 254.238281h-117.027343c-4.328125 0-7.835938-3.507812-7.835938-7.835937s3.507813-7.835938 7.835938-7.835938h117.027343c4.328126 0 7.835938 3.507813 7.835938 7.835938s-3.507812 7.835937-7.835938 7.835937zm0 0"/><path d="m458.164062 279.03125h-117.027343c-4.328125 0-7.835938-3.507812-7.835938-7.835938 0-4.328124 3.507813-7.835937 7.835938-7.835937h117.027343c4.328126 0 7.835938 3.507813 7.835938 7.835937 0 4.328126-3.507812 7.835938-7.835938 7.835938zm0 0"/><path d="m458.164062 303.824219h-117.027343c-4.328125 0-7.835938-3.507813-7.835938-7.835938s3.507813-7.835937 7.835938-7.835937h117.027343c4.328126 0 7.835938 3.507812 7.835938 7.835937s-3.507812 7.835938-7.835938 7.835938zm0 0"/></g><path d="m361.019531 511.996094h-360.519531c0-124.875 56.558594-229.96875 133.414062-260.855469h93.683594c76.851563 30.886719 133.421875 135.980469 133.421875 260.855469zm0 0" fill="#6dcc98"/><path d="m348.410156 511.996094h-15.769531c-11.996094-76.171875-44.972656-140.851563-88.335937-173.191406-3.46875-2.589844-4.179688-7.5-1.585938-10.96875 2.578125-3.46875 7.492188-4.179688 10.960938-1.597657 23.164062 17.28125 44.03125 43.214844 60.332031 75.023438 16.277343 31.761719 28.148437 69.640625 34.304687 109.546875.0625.40625.09375.792968.09375 1.1875zm0 0" fill="#57ad7b"/><path d="m117.203125 338.804688c-43.363281 32.339843-76.339844 97.019531-88.324219 173.191406h-15.777344c0-.394532.03125-.78125.09375-1.1875 6.15625-39.90625 18.023438-77.785156 34.316407-109.546875 16.296875-31.808594 37.15625-57.742188 60.320312-75.023438 3.46875-2.582031 8.378907-1.871093 10.972657 1.597657 2.578124 3.46875 1.867187 8.378906-1.601563 10.96875zm0 0" fill="#57ad7b"/><path d="m180.753906 0c-12.933594 0-24.648437 5.246094-33.121094 13.71875-8.476562 8.476562-13.71875 20.1875-13.71875 33.125v270.980469h93.683594v-270.980469c0-25.871094-20.972656-46.84375-46.84375-46.84375zm14.234375 88.941406c0 7.867188-6.375 14.230469-14.234375 14.230469-7.855468 0-14.230468-6.363281-14.230468-14.230469v-36.757812c0-7.859375 6.375-14.234375 14.230468-14.234375 3.929688 0 7.492188 1.601562 10.0625 4.171875 2.570313 2.570312 4.171875 6.132812 4.171875 10.0625zm0 0" fill="#57ad7b"/><path d="m180.757812 111.015625c-12.167968 0-22.070312-9.902344-22.070312-22.070313v-36.761718c0-12.171875 9.902344-22.070313 22.070312-22.070313 12.167969 0 22.066407 9.898438 22.066407 22.070313v36.761718c0 12.167969-9.898438 22.070313-22.066407 22.070313zm0-65.226563c-3.527343 0-6.394531 2.867188-6.394531 6.394532v36.761718c0 3.527344 2.867188 6.394532 6.394531 6.394532 3.523438 0 6.394532-2.867188 6.394532-6.394532v-36.761718c0-3.527344-2.871094-6.394532-6.394532-6.394532zm0 0" fill="#6dcc98"/><path d="m512.496094 471.53125v40.46875h-54.332032v-512h54.332032v445.40625" fill="#edd464"/></svg>