<svg height="511pt" viewBox="-17 0 511 511.99844" width="511pt" xmlns="http://www.w3.org/2000/svg"><path d="m243.320312 31.25c.105469-1.941406.023438-3.9375-.273437-5.960938-1.933594-13.292968-12.84375-23.757812-26.207031-25.128906-17.78125-1.820312-32.785156 12.085938-32.785156 29.496094 0 .46875.011718.933594.035156 1.398438.214844 4.625-2.765625 8.753906-7.269532 9.832031-45.230468 10.828125-86.070312 41.921875-106.066406 93.285156h285.914063c-20-51.367187-60.839844-82.457031-106.070313-93.289063-4.433594-1.058593-7.519531-5.082031-7.277344-9.632812zm0 0" fill="#3e73b7"/><path d="m356.664062 134.175781-27.300781-.003906c-6.042969-15.523437-14.515625-30.144531-25.113281-43.015625-13.832031-16.796875-35.496094-27.128906-56.417969-31.605469-9.109375-1.949219-15.472656-4.476562-22.453125-10.679687-6.070312-5.390625-7.066406-14.546875-7.3125-22.3125-.210937-6.789063-5.863281-12.761719-10.421875-17.484375-.851562-.882813-6.386719-6.367188-7.628906-5.714844 4.957031-2.59375 10.730469-3.824219 16.828125-3.199219 13.355469 1.367188 24.273438 11.839844 26.203125 25.132813.296875 2.023437.382813 4.011719.273437 5.960937-.242187 4.542969 2.851563 8.570313 7.277344 9.628906 45.230469 10.832032 86.070313 41.925782 106.066406 93.292969zm0 0" fill="#1e5996"/><path d="m318.210938 129.519531h85.230468c41.140625 0 74.492188 33.351563 74.492188 74.492188v88.605469c0 11.449218-9.28125 20.730468-20.730469 20.730468-9.953125 0-18.503906-7.078125-20.363281-16.855468l-17.683594-92.957032c-3.464844-18.21875-19.394531-31.40625-37.945312-31.40625h-49.316407zm0 0" fill="#6a6c78"/><path d="m389.695312 173.0625c-2.738281-.609375-5.578124-.929688-8.484374-.929688h-49.316407l-13.683593-42.609374h58.566406c4.785156 14.351562 9.074218 28.878906 12.917968 43.539062zm0 0" fill="#5b5d68"/><path d="m354.28125 129.523438c0-.003907 0-.003907-.003906-.003907h-340.003906c-8.636719 0-15.171876 8-13.515626 16.625 3.402344 17.757813 12.875 45.9375 39.21875 65.21875 5.175782 3.785157 7.617188 10.351563 6.210938 16.675781-14.171875 63.683594-20.847656 129.367188-23.542969 194.0625h384.316407c-4.113282-98.773437-17.484376-199.855468-52.679688-292.578124zm0 0" fill="#c5dbff"/><path d="m406.960938 422.097656h-384.320313c.332031-7.925781.722656-15.863281 1.167969-23.820312h324.890625c12.742187 0 22.859375-10.910156 22.117187-23.851563-4.738281-82.691406-16.632812-166.390625-42.996094-244.90625h26.453126.011718c35.195313 92.730469 48.566406 193.816407 52.675782 292.578125zm0 0" fill="#9ecaff"/><path d="m47.550781 472.394531 6.511719 29.5c1.316406 5.96875 5.664062 10.105469 10.621094 10.105469h300.234375c4.960937 0 9.308593-4.136719 10.625-10.105469l6.507812-29.5zm0 0" fill="#6a6c78"/><path d="m382.050781 472.390625-3.898437 17.632813h-326.703125l-3.894531-17.632813zm0 0" fill="#5b5d68"/><path d="m410.859375 480.277344h-392.113281c-5.320313 0-9.628906-4.3125-9.628906-9.632813v-43.902343c0-5.320313 4.308593-9.628907 9.628906-9.628907h392.113281c5.320313 0 9.628906 4.308594 9.628906 9.628907v43.902343c0 5.320313-4.308593 9.632813-9.628906 9.632813zm0 0" fill="#3e73b7"/><path d="m214.804688 375.449219c-21.308594 0-38.578126-17.269531-38.578126-38.574219v-127.121094c0-21.304687 17.269532-38.574218 38.578126-38.574218 21.304687 0 38.574218 17.269531 38.574218 38.574218v127.121094c0 21.304688-17.269531 38.574219-38.574218 38.574219zm0 0" fill="#fef1da"/><path d="m253.375 209.753906v127.117188c0 21.304687-17.269531 38.582031-38.574219 38.582031-15.066406 0-28.117187-8.636719-34.460937-21.234375 4.566406 1.902344 9.566406 2.957031 14.828125 2.957031 21.304687 0 38.574219-17.277343 38.574219-38.582031v-127.117188c0-6.230468-1.480469-12.128906-4.101563-17.339843 4.691406 1.953125 8.90625 4.804687 12.4375 8.339843 6.976563 6.984376 11.296875 16.625 11.296875 27.277344zm0 0" fill="#fde6bf"/><g fill="#3e73b7"><path d="m221.691406 195.300781h-13.777344c-4.277343 0-7.75 3.46875-7.75 7.75s3.472657 7.75 7.75 7.75h13.777344c4.28125 0 7.75-3.46875 7.75-7.75s-3.46875-7.75-7.75-7.75zm0 0"/><path d="m221.691406 242.144531h-13.777344c-4.277343 0-7.75 3.46875-7.75 7.75 0 4.277344 3.472657 7.75 7.75 7.75h13.777344c4.28125 0 7.75-3.472656 7.75-7.75 0-4.28125-3.46875-7.75-7.75-7.75zm0 0"/><path d="m221.691406 288.988281h-13.777344c-4.277343 0-7.75 3.46875-7.75 7.746094 0 4.28125 3.472657 7.75 7.75 7.75h13.777344c4.28125 0 7.75-3.46875 7.75-7.75 0-4.277344-3.46875-7.746094-7.75-7.746094zm0 0"/><path d="m221.691406 335.828125h-13.777344c-4.277343 0-7.75 3.46875-7.75 7.75s3.472657 7.75 7.75 7.75h13.777344c4.28125 0 7.75-3.46875 7.75-7.75s-3.46875-7.75-7.75-7.75zm0 0"/></g></svg>