<?xml version="1.0" encoding="iso-8859-1"?>
<!-- Generator: Adobe Illustrator 19.0.0, SVG Export Plug-In . SVG Version: 6.00 Build 0)  -->
<svg version="1.1" id="Capa_1" xmlns="http://www.w3.org/2000/svg" xmlns:xlink="http://www.w3.org/1999/xlink" x="0px" y="0px"
	 viewBox="0 0 512.001 512.001" style="enable-background:new 0 0 512.001 512.001;" xml:space="preserve">
<g>
	<g>
		<path d="M419.411,131.58c-2.182-3.52-6.804-4.605-10.326-2.423c-3.521,2.182-4.605,6.806-2.423,10.326
			c29.036,46.841,16.374,108.389-28.829,140.119c-3.39,2.38-4.209,7.058-1.83,10.448c2.382,3.392,7.06,4.208,10.448,1.83
			C438.155,255.585,452.633,185.173,419.411,131.58z"/>
	</g>
</g>
<g>
	<g>
		<path d="M504.79,202.687c-4.138-0.353-7.756,2.714-8.105,6.841c-7.314,86.533-75.37,155.19-161.821,163.251
			c-4.124,0.385-7.156,4.04-6.771,8.164c0.363,3.888,3.631,6.804,7.459,6.804c0.233,0,0.468-0.011,0.705-0.033
			c93.693-8.736,167.449-83.144,175.376-176.924C511.982,206.664,508.918,203.035,504.79,202.687z"/>
	</g>
</g>
<g>
	<g>
		<path d="M511.321,174.396C501.38,76.944,419.588,0,318.059,0C160.701,0,68.703,177.949,159.143,306.215L7.589,457.77
			c-9.663,9.662-9.663,25.386,0,35.049l11.935,11.935c9.662,9.662,25.385,9.663,35.049,0L206.15,353.175
			c27.533,19.35,59.877,31.384,93.712,34.539c0.237,0.022,0.472,0.033,0.705,0.033c3.828,0,7.096-2.917,7.459-6.804
			c0.384-4.124-2.648-7.78-6.772-8.164c-35.935-3.35-69.304-17.501-95.784-38.879c-132.643-106.766-54.562-318.9,112.589-318.9
			c93.684,0,169.164,70.98,178.338,160.919c0.421,4.121,4.099,7.126,8.223,6.7C508.741,182.2,511.742,178.518,511.321,174.396z
			 M43.965,494.146c-3.814,3.815-10.021,3.814-13.836,0l-11.933-11.935c-3.814-3.814-3.815-10.02,0-13.836l35.773-35.773
			l25.77,25.77L43.965,494.146z M194.112,344L90.347,447.764l-25.77-25.77L168.342,318.23
			C175.745,327.214,184.465,336.002,194.112,344z"/>
	</g>
</g>
<g>
	<g>
		<path d="M424.947,87.396c-58.939-58.938-154.838-58.938-213.775,0c-28.507,28.507-44.207,66.467-44.207,106.888
			c0,83.633,67.454,151.095,151.094,151.095c40.42,0,78.38-15.7,106.888-44.207C483.884,242.232,483.884,146.333,424.947,87.396z
			 M414.339,290.563c-25.674,25.675-59.867,39.814-96.28,39.814c-75.339,0-136.094-60.742-136.094-136.094
			c0-75.806,61.255-136.097,136.093-136.097c34.867,0,69.736,13.273,96.281,39.817C467.428,151.091,467.428,237.473,414.339,290.563
			z"/>
	</g>
</g>
<g>
</g>
<g>
</g>
<g>
</g>
<g>
</g>
<g>
</g>
<g>
</g>
<g>
</g>
<g>
</g>
<g>
</g>
<g>
</g>
<g>
</g>
<g>
</g>
<g>
</g>
<g>
</g>
<g>
</g>
</svg>
