<?xml version='1.0' encoding='iso-8859-1'?>
<svg version="1.1" xmlns="http://www.w3.org/2000/svg" viewBox="0 0 463 463" xmlns:xlink="http://www.w3.org/1999/xlink" enable-background="new 0 0 463 463">
  <g>
    <path d="M423.5,96h-83.986L319.24,65.59C311.897,54.575,299.611,48,286.374,48H176.626c-13.237,0-25.523,6.576-32.866,17.59   L123.486,96H95v-8.5C95,74.542,84.458,64,71.5,64h-16C42.542,64,32,74.542,32,87.5v9.223C13.795,100.238,0,116.284,0,135.5v240   C0,397.28,17.72,415,39.5,415h384c21.78,0,39.5-17.72,39.5-39.5v-240C463,113.72,445.28,96,423.5,96z M55.5,79h16   c4.687,0,8.5,3.813,8.5,8.5V96H47v-8.5C47,82.813,50.813,79,55.5,79z M448,375.5c0,13.51-10.991,24.5-24.5,24.5h-384   C25.991,400,15,389.01,15,375.5v-240c0-13.51,10.991-24.5,24.5-24.5h88c2.508,0,4.849-1.253,6.24-3.34l22.501-33.75   C160.795,67.078,168.416,63,176.626,63h109.748c8.21,0,15.831,4.079,20.386,10.91l22.5,33.75c1.391,2.087,3.732,3.34,6.24,3.34h88   c13.509,0,24.5,10.99,24.5,24.5V375.5z"/>
    <path d="M231.5,120C161.196,120,104,177.196,104,247.5S161.196,375,231.5,375S359,317.804,359,247.5S301.804,120,231.5,120z    M231.5,360C169.467,360,119,309.532,119,247.5S169.467,135,231.5,135S344,185.468,344,247.5S293.533,360,231.5,360z"/>
    <path d="m301.165,193.208c-3.469,2.263-4.448,6.91-2.185,10.379 8.518,13.06 13.02,28.245 13.02,43.913 0,44.388-36.112,80.5-80.5,80.5s-80.5-36.112-80.5-80.5 36.112-80.5 80.5-80.5c16.694,0 32.704,5.062 46.299,14.638 3.386,2.385 8.064,1.574 10.451-1.813 2.385-3.387 1.574-8.065-1.813-10.451-16.137-11.366-35.134-17.374-54.937-17.374-52.659,0-95.5,42.841-95.5,95.5s42.841,95.5 95.5,95.5 95.5-42.841 95.5-95.5c0-18.585-5.345-36.604-15.456-52.106-2.263-3.469-6.909-4.448-10.379-2.186z"/>
    <path d="m263,247.5c0-17.369-14.131-31.5-31.5-31.5s-31.5,14.131-31.5,31.5 14.131,31.5 31.5,31.5 31.5-14.131 31.5-31.5zm-48,0c0-9.098 7.402-16.5 16.5-16.5s16.5,7.402 16.5,16.5-7.402,16.5-16.5,16.5-16.5-7.402-16.5-16.5z"/>
    <path d="m245.355,201.006c0.713,0.213 1.434,0.313 2.142,0.313 3.232,0 6.217-2.106 7.186-5.363 1.181-3.97-1.08-8.146-5.05-9.327-5.863-1.744-11.964-2.629-18.133-2.629-4.142,0-7.5,3.357-7.5,7.5s3.358,7.5 7.5,7.5c4.72,0 9.381,0.675 13.855,2.006z"/>
    <path d="m183,247.5c0-4.143-3.358-7.5-7.5-7.5s-7.5,3.357-7.5,7.5c0,27.883 18.646,52.911 45.345,60.864 0.714,0.213 1.435,0.314 2.144,0.314 3.231,0 6.215-2.105 7.185-5.36 1.183-3.97-1.077-8.146-5.047-9.329-20.388-6.074-34.627-25.19-34.627-46.489z"/>
    <path d="m275.631,282.781c1.211,0.73 2.545,1.077 3.863,1.077 2.543,0 5.023-1.294 6.432-3.631 5.936-9.853 9.074-21.17 9.074-32.728 0-13.072-3.942-25.628-11.401-36.312-2.371-3.396-7.047-4.229-10.443-1.856-3.396,2.371-4.227,7.046-1.856,10.442 5.691,8.153 8.7,17.74 8.7,27.726 0,8.83-2.394,17.471-6.922,24.987-2.138,3.549-0.995,8.158 2.553,10.295z"/>
    <path d="m391.5,136c-17.369,0-31.5,14.131-31.5,31.5s14.131,31.5 31.5,31.5 31.5-14.131 31.5-31.5-14.131-31.5-31.5-31.5zm0,48c-9.098,0-16.5-7.402-16.5-16.5s7.402-16.5 16.5-16.5 16.5,7.402 16.5,16.5-7.402,16.5-16.5,16.5z"/>
    <path d="m63.5,176c-4.142,0-7.5,3.357-7.5,7.5v192c0,4.143 3.358,7.5 7.5,7.5s7.5-3.357 7.5-7.5v-192c0-4.143-3.358-7.5-7.5-7.5z"/>
    <path d="m63.5,128c-4.142,0-7.5,3.357-7.5,7.5v16c0,4.143 3.358,7.5 7.5,7.5s7.5-3.357 7.5-7.5v-16c0-4.143-3.358-7.5-7.5-7.5z"/>
  </g>
</svg>
