<svg id="Capa_1" enable-background="new 0 0 512 512" height="512" viewBox="0 0 512 512" width="512" xmlns="http://www.w3.org/2000/svg"><path d="m262.876 417.564h-58.134c-4.268 0-7.726-3.459-7.726-7.726s3.459-7.726 7.726-7.726h50.407v-22.152c0-4.268 3.459-7.726 7.726-7.726s7.726 3.459 7.726 7.726v29.877c.001 4.268-3.458 7.727-7.725 7.727z" fill="#595959"/><circle cx="77.29" cy="332.547" fill="#595959" r="77.29"/><path d="m77.29 255.257c-3.829 0-7.59.289-11.27.827 37.343 5.457 66.02 37.606 66.02 76.463s-28.677 71.006-66.02 76.463c3.68.538 7.441.827 11.27.827 42.686 0 77.29-34.604 77.29-77.29s-34.604-77.29-77.29-77.29z" fill="#454545"/><path d="m325.317 334.395c0-57.71 46.783-104.493 104.493-104.493 3.804 0 7.56.206 11.259.604 3.441.37 6.886-.644 9.502-2.91l20.201-17.494c3.421-2.962 5.953-6.838 7.197-11.189 4.49-15.702 4.818-30.788-.394-45.056-1.017-2.785-2.54-5.361-4.493-7.592-34.144-38.998-84.243-55.009-135.95-51.313-8.472.606-13.299 9.987-8.956 17.287l9.337 15.695c16.9 28.407 9.242 65.023-17.626 84.276l-25.024 17.932c-15.281 10.95-33.608 16.839-52.408 16.839h-16.969c-22.027 0-39.884 17.857-39.884 39.884v71.073c0 17.851 14.471 32.322 32.322 32.322h111.353c5.336 0 8.76-5.585 6.434-10.388-6.659-13.747-10.394-29.175-10.394-45.477z" fill="#9bd069"/><path d="m417.459 230.632c-4.049-.478-8.168-.73-12.346-.73-57.71 0-104.493 46.783-104.493 104.493 0 20.548 5.935 39.707 16.178 55.866h12.478c5.336 0 8.76-5.585 6.434-10.388-6.659-13.749-10.394-29.177-10.394-45.478.001-53.53 40.255-97.652 92.143-103.763z" fill="#8bc852"/><path d="m477.504 153.665c-.982-2.663-2.437-5.126-4.304-7.263-33.717-38.604-83.044-54.725-134.118-51.563 41.99 2.674 81.178 19.229 109.416 51.557 1.869 2.14 3.326 4.604 4.309 7.269 5.285 14.325 4.975 29.477.465 45.249-1.244 4.351-3.776 8.227-7.197 11.189l-23.129 20.029c2.27-.147 4.557-.23 6.864-.23 3.804 0 7.56.206 11.259.604 3.441.37 6.886-.644 9.502-2.91l20.201-17.494c3.421-2.962 5.953-6.838 7.197-11.189 4.51-15.771 4.82-30.923-.465-45.248z" fill="#8bc852"/><circle cx="434.71" cy="332.547" fill="#595959" r="77.29"/><path d="m434.71 255.257c-4.164 0-8.247.339-12.232.973 36.872 5.864 65.058 37.795 65.058 76.317 0 38.523-28.186 70.453-65.058 76.317 3.985.634 8.068.973 12.232.973 42.686 0 77.29-34.604 77.29-77.29s-34.604-77.29-77.29-77.29z" fill="#454545"/><circle cx="434.71" cy="332.547" fill="#eaeaea" r="36.209"/><circle cx="77.29" cy="332.547" fill="#eaeaea" r="36.209"/><path d="m443.608 177.147c0 16.472 13.353 29.824 29.824 29.824.111 0 .219-.007.33-.008 1.954-2.454 3.422-5.277 4.284-8.323 4.436-15.675 4.712-30.736-.544-44.979-.842-2.281-2.043-4.413-3.539-6.325-.177-.003-.353-.013-.531-.013-16.471 0-29.824 13.353-29.824 29.824z" fill="#f6e738"/><path d="m369.603 248.984c-8.601 6.074-16.24 13.416-22.654 21.751l76.95 73.179c3.036 2.887 6.924 4.319 10.808 4.319 4.146 0 8.287-1.635 11.37-4.877 5.97-6.278 5.721-16.207-.558-22.178z" fill="#aaa"/><path d="m369.603 248.984c-8.601 6.074-16.24 13.416-22.654 21.751l13.499 12.837c6.421-8.33 14.067-15.665 22.674-21.732z" fill="#9b9b9b"/><path d="m187.108 276.013c4.728-16.751 20.113-29.031 38.377-29.031h16.969c18.799 0 37.127-5.889 52.408-16.839l13.947-9.994-92.324-35.289h-59.907c-6.148 0-12.111-2.099-16.904-5.949l-49.94-40.123c-4.269-3.43-9.581-5.299-15.057-5.299h-37.762c-8.578 0-15.532 6.954-15.532 15.532 0 5.002 2.409 9.698 6.471 12.615l159.242 114.375z" fill="#595959"/><path d="m242.454 246.982c18.799 0 37.127-5.889 52.408-16.839l13.947-9.994-22.368-8.55-8.509 6.097c-15.281 10.95-33.608 16.839-52.408 16.839h-16.969c-18.352 0-33.799 12.399-38.446 29.274l16.989 12.202.011.002c4.728-16.751 20.113-29.031 38.377-29.031z" fill="#454545"/><path d="m187.108 276.013-.011-.002-20.672-14.847-92.397 56.836c-3.588 2.163-5.998 5.534-7.026 9.278-1.098 3.998-.617 8.424 1.693 12.255 4.473 7.419 14.114 9.807 21.534 5.334l95.391-58.691c-.19-3.691 1.301-10.322 1.488-10.163z" fill="#aaa"/><path d="m187.108 276.013-.011-.002-20.672-14.847-19.849 12.21 27.615 19.834 11.428-7.031c-.189-3.692 1.302-10.323 1.489-10.164z" fill="#9b9b9b"/><path d="m282.006 148.7c-27.65 0-51.928 14.426-65.726 36.16h.205l92.324 35.289 11.078-7.938c11.764-8.43 19.845-20.189 23.795-33.131-14.225-18.473-36.558-30.38-61.676-30.38z" fill="#9bd069"/><path d="m325.435 161.954c-2.171 16.998-11.151 33.019-26.053 43.697l-9.915 7.105 19.342 7.393 11.078-7.938c11.764-8.43 19.845-20.189 23.795-33.131-5.115-6.642-11.283-12.43-18.247-17.126z" fill="#8bc852"/><g fill="#595959"><path d="m256 354.849h-22.191c-4.268 0-7.726-3.459-7.726-7.726s3.459-7.726 7.726-7.726h22.191c4.268 0 7.726 3.459 7.726 7.726s-3.459 7.726-7.726 7.726z"/><path d="m359.48 137.352h-50.67c-4.268 0-7.726-3.459-7.726-7.726s3.459-7.726 7.726-7.726h50.67c4.268 0 7.726 3.459 7.726 7.726s-3.459 7.726-7.726 7.726z"/></g></svg>