<svg height="512pt" viewBox="0 -53 512.00045 512" width="512pt" xmlns="http://www.w3.org/2000/svg"><path d="m504.632812 271.507812c-5.402343-6.441406-12.964843-10.386718-21.289062-11.109374l-.476562-.042969c-1.914063-18.679688-12.484376-35.140625-27.914063-44.871094v-35.164063c0-.242187-.011719-.484374-.035156-.726562-5.394531-55.5-34.210938-106.542969-79.058594-140.042969-3.316406-2.476562-8.015625-1.796875-10.492187 1.519531-2.480469 3.320313-1.796876 8.015626 1.519531 10.496094 41.375 30.90625 67.996093 77.953125 73.074219 129.121094v28.003906c-3.765626-1.109375-7.6875-1.867187-11.746094-2.226562l-13.089844-1.15625v-6.199219c0-87.347656-71.0625-158.414063-158.417969-158.414063-42.121093 0-81.773437 16.355469-111.652343 46.054688-29.863282 29.683594-46.464844 69.207031-46.738282 111.339844v7.089844l-14.507812 1.285156c-3.734375.332031-7.386719 1.011718-10.929688 2l.09375-21.675782c6.378906-96.347656 87.039063-171.792968 183.734375-171.792968 27.457031 0 53.878907 5.890625 78.53125 17.507812 3.746094 1.761719 8.210938.160156 9.976563-3.585937 1.765625-3.746094.160156-8.214844-3.585938-9.980469-26.664062-12.566406-55.234375-18.9375-84.921875-18.9375-50.914062 0-99.367187 19.203125-136.425781 54.066406-36.890625 34.710938-59.011719 81.578125-62.285156 131.976563-.007813.152343-.015625.300781-.015625.453125l-.121094 28.5c-5.554687 3.386718-10.589844 7.6875-14.902344 12.832031-7.875 9.394531-12.605469 20.660156-13.8125 32.527344l-.492187.042969c-8.324219.726562-15.882813 4.667968-21.285156 11.109374-5.410157 6.449219-7.984376 14.589844-7.242188 22.921876l4.222656 47.886718c1.410156 16.308594 15.167969 28.648438 31.292969 28.648438.90625 0 1.820313-.039063 2.742187-.117188l2.796876-.246094c3.683593 8.105469 9.175781 15.363282 16.226562 21.273438 10.980469 9.203125 24.515625 14.125 38.589844 14.125 1.773437 0 3.5625-.078125 5.351562-.238281l22.410156-1.984375c10.015626-.871094 19.109376-5.621094 25.605469-13.371094 6.492188-7.742188 9.585938-17.523438 8.710938-27.546875l-10.941407-124.066406c-1.535156-17.613281-15.023437-31.363281-31.777343-33.992188 11.566406-61.378906 70.808593-106.707031 141.355469-106.707031 70.484374 0 129.671874 45.222656 141.359374 106.503906-17.417968 2.046875-31.621093 16.082032-33.199218 34.1875l-10.945313 124.085938c-.871093 10.011718 2.222657 19.792968 8.714844 27.535156 6.492187 7.753906 15.585937 12.5 25.59375 13.371094l22.421875 1.984375c1.792969.160156 3.574219.238281 5.339844.238281 23.984375 0 45.253906-14.316406 54.828125-35.402344l2.835937.25c.914063.078125 1.824219.117188 2.730469.117188 16.085937 0 29.84375-12.335938 31.292969-28.644532l4.191406-47.886718c.738281-8.335938-1.832031-16.476563-7.242188-22.925782zm-467.960937 84.429688c-8.875.550781-16.621094-6.0625-17.390625-14.929688l-4.222656-47.898437c-.386719-4.339844.960937-8.589844 3.792968-11.964844 2.703126-3.222656 6.425782-5.25 10.53125-5.75l6.65625 75.632813c0 .023437.003907.042968.007813.066406.078125.914062.1875 1.828125.308594 2.738281.03125.226563.066406.453125.101562.679688.070313.472656.132813.953125.214844 1.425781zm95.523437-115.835938 10.9375 124.070313c.527344 6.027344-1.34375 11.925781-5.265624 16.601563-3.917969 4.679687-9.390626 7.542968-15.421876 8.070312l-22.421874 1.980469c-11.972657 1.058593-23.691407-2.648438-32.988282-10.441407-6.558594-5.5-11.320312-12.546874-13.933594-20.425781-1.101562-3.304687-1.824218-6.773437-2.125-10.246093l-6.976562-79.273438c0-.003906 0-.007812 0-.011719-1.050781-11.96875 2.65625-23.675781 10.445312-32.964843 7.796876-9.296876 18.691407-15 30.683594-16.058594l20.921875-1.851563c.285157-.007812.566407-.035156.84375-.074219l.179688-.015624c.160156-.007813.316406-.023438.472656-.042969.660156-.058594 1.316406-.085938 1.96875-.085938 11.675781 0 21.644531 8.941407 22.679687 20.769531zm230.535157-120.171874c-29.125-23.753907-66.777344-36.832032-106.023438-36.832032-39.214843 0-76.847656 13.066406-105.960937 36.796875-11.632813 9.480469-21.539063 20.355469-29.503906 32.230469 19.546874-56.035156 73.003906-96.433594 135.464843-96.433594 62.636719 0 116.011719 40.359375 135.511719 96.464844-7.964844-11.871094-17.859375-22.742188-29.488281-32.226562zm53.25 271.074218c-1.324219 0-2.660157-.058594-4.003907-.175781l-22.433593-1.988281c-6.023438-.523438-11.496094-3.386719-15.414063-8.066406-3.921875-4.675782-5.792968-10.574219-5.269531-16.59375l10.945313-124.085938c1.027343-11.824219 11-20.761719 22.671874-20.761719.65625 0 1.324219.027344 1.996094.085938l2.296875.203125c.082031.007812.164063.015625.242188.019531l19.882812 1.761719c6.085938.535156 11.78125 2.265625 16.886719 4.929687.132812.074219.269531.140625.40625.207031 14.546875 7.769532 24.171875 23.191407 23.992188 40.40625-.003907.097657-.015626.195313-.015626.296876 0 .476562-.015624.949218-.03125 1.425781-.027343.589843-.058593 1.175781-.109374 1.769531l-7.003907 79.269531c-.332031 3.621094-1.113281 7.152344-2.234375 10.609375-6.140625 18.058594-23.273437 30.6875-42.804687 30.6875-1.324219 0 19.53125 0 0 0zm80.957031-97.886718-4.195312 47.886718c-.785157 8.875-8.578126 15.488282-17.414063 14.933594.085937-.519531.15625-1.039062.234375-1.5625.023438-.1875.058594-.375.082031-.566406.125-.925782.234375-1.851563.3125-2.78125l6.683594-75.628906c4.097656.503906 7.808594 2.527343 10.503906 5.746093 2.832031 3.375 4.179688 7.625 3.792969 11.972657zm0 0"/></svg>