<svg height="511pt" viewBox="-17 0 511 511.99933" width="511pt" xmlns="http://www.w3.org/2000/svg"><path d="m398.085938 126.722656h-42.558594c-19.082032-44.761718-56.53125-76.667968-103.476563-87.90625-.6875-.164062-1.160156-.753906-1.125-1.402344.125-2.355468.015625-4.75-.328125-7.113281-2.335937-16.074219-15.253906-28.460937-31.410156-30.117187-10.042969-1.023438-20.070312 2.238281-27.511719 8.957031-7.449219 6.726563-11.722656 16.335937-11.722656 26.363281 0 .5625.015625 1.121094.039063 1.675782.035156.671874-.300782 1.441406-1.117188 1.636718-46.941406 11.242188-84.390625 43.148438-103.46875 87.90625h-54.070312c-6.25 0-12.117188 2.765625-16.09375 7.59375-3.957032 4.804688-5.546876 11.0625-4.355469 17.167969 3.855469 19.769531 14.09375 47.386719 40.949219 66.710937 2.566406 1.847657 3.773437 5.035157 3.074218 8.125-12.078125 53.359376-19.488281 112.046876-22.644531 179.164063-7.652344 1.574219-13.425781 8.363281-13.425781 16.476563v42.503906c0 9.277344 7.546875 16.824218 16.824218 16.824218h22.171876l4.785156 17.367188c2.167968 7.855469 9.367187 13.34375 17.519531 13.34375h32.917969c4.140625 0 7.5-3.359375 7.5-7.503906 0-4.140625-3.359375-7.5-7.5-7.5h-32.917969c-1.421875 0-2.675781-.957032-3.050781-2.324219l-3.6875-13.382813h304.125l-3.6875 13.382813c-.375 1.367187-1.628906 2.324219-3.050782 2.324219h-223.554687c-4.144531 0-7.503906 3.359375-7.503906 7.5 0 4.144531 3.359375 7.503906 7.503906 7.503906h223.554687c8.152344 0 15.355469-5.488281 17.519532-13.34375l4.78125-17.367188h22.171875c9.28125 0 16.828125-7.546874 16.828125-16.824218v-42.503906c0-8.109376-5.765625-14.894532-13.414063-16.476563-4.003906-84.835937-15.148437-158.214844-33.863281-222.503906h1.75c14.335938 0 26.683594 10.21875 29.363281 24.304687l3.988281 20.976563c.773438 4.070312 4.707032 6.746093 8.773438 5.96875 4.070312-.777344 6.742188-4.703125 5.96875-8.773438l-3.992188-20.976562c-4.023437-21.152344-22.570312-36.507813-44.101562-36.507813h-6.304688c-2.828124-8.925781-5.8125-17.671875-8.949218-26.246094h36.773437c35.628907 0 64.613281 28.984376 64.613281 64.613282v85.777344c0 6.929687-5.636718 12.566406-12.566406 12.566406-6.023437 0-11.21875-4.296875-12.34375-10.21875l-6.734375-35.40625c-.777343-4.070313-4.703125-6.746094-8.773437-5.96875-4.070313.773437-6.742188 4.703125-5.96875 8.773437l6.738281 35.40625c2.46875 12.992188 13.859375 22.417969 27.082031 22.417969 15.203125 0 27.570313-12.367188 27.570313-27.570312v-85.777344c.003906-43.902344-35.714844-79.617188-79.613281-79.617188zm-215.71875-73.316406c7.683593-1.835938 12.988281-8.957031 12.613281-16.929688-.015625-.320312-.019531-.644531-.019531-.972656 0-5.792968 2.464843-11.339844 6.769531-15.226562 4.359375-3.9375 10.019531-5.769532 15.925781-5.164063 9.160156.9375 16.769531 8.234375 18.09375 17.347657.199219 1.386718.265625 2.78125.191406 4.148437-.421875 7.882813 4.882813 14.945313 12.617188 16.796875 40.160156 9.617188 72.617187 36.066406 90.503906 73.316406h-247.195312c17.886718-37.246094 50.339843-63.699218 90.5-73.316406zm224.71875 368.554688v42.503906c0 1.003906-.816407 1.820312-1.820313 1.820312h-379.601563c-1.003906 0-1.820312-.816406-1.820312-1.820312v-42.503906c0-1.003907.816406-1.820313 1.820312-1.820313h379.601563c1.003906 0 1.820313.816406 1.820313 1.820313zm-13.445313-16.824219h-356.351563c3.140626-65.800781 10.433594-123.28125 22.257813-175.507813 2.03125-8.972656-1.480469-18.242187-8.949219-23.617187-22.867187-16.449219-31.648437-40.296875-34.984375-57.402344-.453125-2.308594.566407-3.96875 1.210938-4.753906.65625-.796875 2.113281-2.128907 4.511719-2.128907h323.984374c27.5 73.125 43.335938 159.441407 48.320313 263.410157zm0 0"/><path d="m215.464844 167.050781c-24.730469 0-44.847656 20.121094-44.847656 44.847657v123.0625c0 24.730468 20.117187 44.847656 44.847656 44.847656 24.730468 0 44.847656-20.117188 44.847656-44.847656v-123.0625c0-24.726563-20.117188-44.847657-44.847656-44.847657zm29.84375 167.910157c0 16.457031-13.390625 29.84375-29.84375 29.84375-16.457032 0-29.84375-13.386719-29.84375-29.84375v-123.0625c0-16.453126 13.386718-29.84375 29.84375-29.84375 16.453125 0 29.84375 13.390624 29.84375 29.84375zm0 0"/><path d="m222.132812 197.90625h-13.335937c-4.144531 0-7.503906 3.359375-7.503906 7.503906 0 4.144532 3.359375 7.503906 7.503906 7.503906h13.335937c4.144532 0 7.503907-3.359374 7.503907-7.503906 0-4.144531-3.359375-7.503906-7.503907-7.503906zm0 0"/><path d="m222.132812 243.253906h-13.335937c-4.144531 0-7.503906 3.359375-7.503906 7.503906 0 4.144532 3.359375 7.5 7.503906 7.5h13.335937c4.144532 0 7.503907-3.355468 7.503907-7.5 0-4.144531-3.359375-7.503906-7.503907-7.503906zm0 0"/><path d="m222.132812 288.601562h-13.335937c-4.144531 0-7.503906 3.359376-7.503906 7.503907 0 4.140625 3.359375 7.5 7.503906 7.5h13.335937c4.144532 0 7.503907-3.359375 7.503907-7.5 0-4.144531-3.359375-7.503907-7.503907-7.503907zm0 0"/><path d="m222.132812 333.949219h-13.335937c-4.144531 0-7.503906 3.359375-7.503906 7.503906s3.359375 7.5 7.503906 7.5h13.335937c4.144532 0 7.503907-3.355469 7.503907-7.5s-3.359375-7.503906-7.503907-7.503906zm0 0"/></svg>