<?xml version="1.0" standalone="no"?>
<svg xmlns="http://www.w3.org/2000/svg" viewBox="0 0 1440 320" preserveAspectRatio="none">
    <path fill="#d92644" fill-opacity="1" d="M0,128L18.5,144C36.9,160,74,192,111,208C147.7,224,185,224,222,240C258.5,256,295,288,332,266.7C369.2,245,406,171,443,149.3C480,128,517,160,554,192C590.8,224,628,256,665,261.3C701.5,267,738,245,775,224C812.3,203,849,181,886,181.3C923.1,181,960,203,997,186.7C1033.8,171,1071,117,1108,90.7C1144.6,64,1182,64,1218,101.3C1255.4,139,1292,213,1329,229.3C1366.2,245,1403,203,1422,181.3L1440,160L1440,320L1421.5,320C1403.1,320,1366,320,1329,320C1292.3,320,1255,320,1218,320C1181.5,320,1145,320,1108,320C1070.8,320,1034,320,997,320C960,320,923,320,886,320C849.2,320,812,320,775,320C738.5,320,702,320,665,320C627.7,320,591,320,554,320C516.9,320,480,320,443,320C406.2,320,369,320,332,320C295.4,320,258,320,222,320C184.6,320,148,320,111,320C73.8,320,37,320,18,320L0,320Z"></path></svg>