<?xml version="1.0" standalone="no"?>
<svg xmlns="http://www.w3.org/2000/svg" viewBox="0 0 1440 320" preserveAspectRatio="none"><path fill="#d92644" fill-opacity="1" d="M0,224L30,213.3C60,203,120,181,180,149.3C240,117,300,75,360,90.7C420,107,480,181,540,192C600,203,660,149,720,144C780,139,840,181,900,192C960,203,1020,181,1080,154.7C1140,128,1200,96,1260,90.7C1320,85,1380,107,1410,117.3L1440,128L1440,320L1410,320C1380,320,1320,320,1260,320C1200,320,1140,320,1080,320C1020,320,960,320,900,320C840,320,780,320,720,320C660,320,600,320,540,320C480,320,420,320,360,320C300,320,240,320,180,320C120,320,60,320,30,320L0,320Z"></path></svg>