<?xml version="1.0" standalone="no"?><svg xmlns="http://www.w3.org/2000/svg" viewBox="0 0 1440 320"><path fill="#d92644" fill-opacity="1" d="M0,224L30,213.3C60,203,120,181,180,149.3C240,117,300,75,360,90.7C420,107,480,181,540,192C600,203,660,149,720,144C780,139,840,181,900,192C960,203,1020,181,1080,154.7C1140,128,1200,96,1260,90.7C1320,85,1380,107,1410,117.3L1440,128L1440,0L1410,0C1380,0,1320,0,1260,0C1200,0,1140,0,1080,0C1020,0,960,0,900,0C840,0,780,0,720,0C660,0,600,0,540,0C480,0,420,0,360,0C300,0,240,0,180,0C120,0,60,0,30,0L0,0Z"></path></svg>