<?xml version="1.0" standalone="no"?><svg xmlns="http://www.w3.org/2000/svg" viewBox="0 0 1440 320"><path fill="#d92644" fill-opacity="1" d="M0,96L30,96C60,96,120,96,180,122.7C240,149,300,203,360,218.7C420,235,480,213,540,186.7C600,160,660,128,720,144C780,160,840,224,900,240C960,256,1020,224,1080,208C1140,192,1200,192,1260,208C1320,224,1380,256,1410,272L1440,288L1440,320L1410,320C1380,320,1320,320,1260,320C1200,320,1140,320,1080,320C1020,320,960,320,900,320C840,320,780,320,720,320C660,320,600,320,540,320C480,320,420,320,360,320C300,320,240,320,180,320C120,320,60,320,30,320L0,320Z"></path></svg>