<?xml version="1.0" standalone="no"?><svg xmlns="http://www.w3.org/2000/svg" viewBox="0 0 1440 320"><path fill="#d92644" fill-opacity="1" d="M0,96L30,96C60,96,120,96,180,122.7C240,149,300,203,360,218.7C420,235,480,213,540,186.7C600,160,660,128,720,144C780,160,840,224,900,240C960,256,1020,224,1080,208C1140,192,1200,192,1260,208C1320,224,1380,256,1410,272L1440,288L1440,0L1410,0C1380,0,1320,0,1260,0C1200,0,1140,0,1080,0C1020,0,960,0,900,0C840,0,780,0,720,0C660,0,600,0,540,0C480,0,420,0,360,0C300,0,240,0,180,0C120,0,60,0,30,0L0,0Z"></path></svg>